<svg width="109" height="17" viewBox="0 0 109 17" fill="none" xmlns="http://www.w3.org/2000/svg">
<path d="M0.51123 13.8145L1.25508 12.9551C2.1319 13.7572 2.99793 14.3408 3.85318 14.7061C4.70843 15.0641 5.69305 15.2432 6.80703 15.2432C7.95695 15.2432 8.89486 14.9531 9.62074 14.373C10.3466 13.793 10.7096 13.0482 10.7096 12.1387C10.7096 11.5658 10.591 11.0895 10.3538 10.71C10.1238 10.3304 9.68542 9.98665 9.0386 9.67871C8.39895 9.37077 7.50058 9.09863 6.34347 8.8623C4.48204 8.48275 3.14526 7.95638 2.33313 7.2832C1.52819 6.60286 1.12572 5.67188 1.12572 4.49023C1.12572 3.33724 1.59647 2.37402 2.53796 1.60059C3.47946 0.827148 4.66531 0.44043 6.09552 0.44043C7.18795 0.44043 8.14022 0.59082 8.95235 0.891602C9.76448 1.18522 10.5766 1.65788 11.3887 2.30957L10.6664 3.21191C9.95494 2.59603 9.22546 2.15202 8.47801 1.87988C7.73775 1.60775 6.92921 1.47168 6.0524 1.47168C4.93123 1.47168 4.02208 1.75456 3.32494 2.32031C2.6278 2.87891 2.27923 3.58073 2.27923 4.42578C2.27923 5.00586 2.39422 5.48926 2.62421 5.87598C2.86138 6.25553 3.31056 6.61003 3.97177 6.93945C4.64016 7.26172 5.57447 7.5446 6.77469 7.78809C8.56425 8.15332 9.85791 8.67253 10.6557 9.3457C11.4606 10.0189 11.8631 10.9284 11.8631 12.0742C11.8631 13.306 11.3816 14.3158 10.4185 15.1035C9.45544 15.8841 8.22647 16.2744 6.73157 16.2744C5.51697 16.2744 4.41017 16.0739 3.41118 15.6729C2.41938 15.2718 1.45273 14.6523 0.51123 13.8145Z" fill="#212121"/>
<path d="M17.3055 16.0596V0H18.3836V16.0596H17.3055Z" fill="#212121"/>
<path d="M24.4405 1.91211V0.44043H25.7772V1.91211H24.4405ZM24.5698 16.0596V4.84473H25.6479V16.0596H24.5698Z" fill="#212121"/>
<path d="M31.6724 16.0596V4.84473H32.7613V6.84277C32.9697 6.51335 33.1781 6.22689 33.3865 5.9834C33.595 5.73991 33.8465 5.50716 34.1412 5.28516C34.443 5.05599 34.7916 4.88053 35.1869 4.75879C35.5894 4.63704 36.0314 4.57617 36.5129 4.57617C37.4328 4.57617 38.209 4.80176 38.8415 5.25293C39.4811 5.69694 39.9698 6.27702 40.3076 6.99316C41.2491 5.38184 42.6039 4.57617 44.3719 4.57617C45.7014 4.57617 46.7543 5.00228 47.5305 5.85449C48.3067 6.70671 48.6948 7.8418 48.6948 9.25977V16.0596H47.6168V9.38867C47.6168 8.18555 47.3221 7.2474 46.7328 6.57422C46.1434 5.90104 45.3277 5.56445 44.2856 5.56445C43.2938 5.56445 42.4529 5.92253 41.763 6.63867C41.073 7.35482 40.7281 8.31803 40.7281 9.52832V16.0596H39.65V9.32422C39.65 8.16406 39.3517 7.2474 38.7552 6.57422C38.1659 5.90104 37.3681 5.56445 36.362 5.56445C35.3558 5.56445 34.5041 5.95475 33.807 6.73535C33.1098 7.50879 32.7613 8.46126 32.7613 9.59277V16.0596H31.6724Z" fill="#212121"/>
<path d="M55 16V0.595703H56.078L62.2876 9.70508L68.4864 0.595703H69.5752V16H68.4217V2.62598L62.3092 11.4883H62.2229L56.0996 2.62598V16H55Z" fill="#FC842D"/>
<path d="M74.9206 10.3243C74.9206 9.54372 75.068 8.79535 75.3626 8.0792C75.6573 7.36305 76.0562 6.74001 76.5592 6.21006C77.0623 5.67295 77.6768 5.24684 78.4027 4.93174C79.1286 4.60947 79.9012 4.44834 80.7205 4.44834C81.8058 4.44834 82.7904 4.7169 83.6744 5.25401C84.5656 5.78395 85.2555 6.5001 85.7442 7.40244C86.2401 8.29763 86.4881 9.27158 86.4881 10.3243C86.4881 11.3699 86.2401 12.3403 85.7442 13.2355C85.2483 14.1306 84.5512 14.8504 83.6528 15.3946C82.7616 15.9317 81.7698 16.2003 80.6774 16.2003C79.8653 16.2003 79.0999 16.0427 78.3812 15.7276C77.6625 15.4125 77.0516 14.99 76.5485 14.4601C76.0454 13.9301 75.6465 13.3071 75.3518 12.5909C75.0644 11.8676 74.9206 11.1121 74.9206 10.3243ZM76.0849 10.3243C76.0849 11.6778 76.5305 12.8272 77.4217 13.7726C78.3201 14.7107 79.4197 15.1798 80.7205 15.1798C81.5398 15.1798 82.3017 14.9649 83.006 14.5353C83.7103 14.0984 84.2709 13.5076 84.6877 12.7628C85.1046 12.018 85.313 11.2052 85.313 10.3243C85.313 8.97796 84.8602 7.83213 83.9547 6.88682C83.0491 5.93434 81.9567 5.45811 80.6774 5.45811C79.8437 5.45811 79.0747 5.67653 78.3704 6.11338C77.666 6.54307 77.1091 7.13389 76.6994 7.88584C76.2897 8.63063 76.0849 9.44346 76.0849 10.3243Z" fill="#FC842D"/>
<path d="M91.5747 16V4.78516H92.6636V6.7832C92.872 6.45378 93.0804 6.16732 93.2888 5.92383C93.4973 5.68034 93.7488 5.44759 94.0435 5.22559C94.3453 4.99642 94.6939 4.82096 95.0892 4.69922C95.4916 4.57747 95.9336 4.5166 96.4152 4.5166C97.3351 4.5166 98.1113 4.74219 98.7438 5.19336C99.3834 5.63737 99.8721 6.21745 100.21 6.93359C101.151 5.32227 102.506 4.5166 104.274 4.5166C105.604 4.5166 106.657 4.94271 107.433 5.79492C108.209 6.64714 108.597 7.78223 108.597 9.2002V16H107.519V9.3291C107.519 8.12598 107.224 7.18783 106.635 6.51465C106.046 5.84147 105.23 5.50488 104.188 5.50488C103.196 5.50488 102.355 5.86296 101.665 6.5791C100.975 7.29525 100.63 8.25846 100.63 9.46875V16H99.5523V9.26465C99.5523 8.10449 99.254 7.18783 98.6575 6.51465C98.0682 5.84147 97.2704 5.50488 96.2643 5.50488C95.2581 5.50488 94.4064 5.89518 93.7093 6.67578C93.0121 7.44922 92.6636 8.40169 92.6636 9.5332V16H91.5747Z" fill="#FC842D"/>
</svg>
