<svg aria-hidden="true" style="position: absolute; width: 0; height: 0; overflow: hidden;" version="1.1" xmlns="http://www.w3.org/2000/svg" xmlns:xlink="http://www.w3.org/1999/xlink">
<defs>
<symbol id="burgerBtn" viewBox="0 0 48 32">
<path d="M0 32h48v-5.333h-48v5.333zM0 18.667h48v-5.333h-48v5.333zM0 0v5.333h48v-5.333h-48z"></path>
</symbol>
<symbol id="calendarBtn" viewBox="0 0 32 32">
<path fill="#9b9faa" style="fill: var(--color1, #9b9faa)" d="M24 14.4h-3.2v3.2h3.2v-3.2z"></path>
<path fill="#9b9faa" style="fill: var(--color1, #9b9faa)" d="M17.6 14.4h-3.2v3.2h3.2v-3.2z"></path>
<path fill="#9b9faa" style="fill: var(--color1, #9b9faa)" d="M11.2 14.4h-3.2v3.2h3.2v-3.2z"></path>
<path fill="#9b9faa" style="fill: var(--color1, #9b9faa)" d="M27.2 3.2h-1.6v-3.2h-3.2v3.2h-12.8v-3.2h-3.2v3.2h-1.6c-1.776 0-3.184 1.44-3.184 3.2l-0.016 22.4c0 1.76 1.424 3.2 3.2 3.2h22.4c1.76 0 3.2-1.44 3.2-3.2v-22.4c0-1.76-1.44-3.2-3.2-3.2zM27.2 28.8h-22.4v-17.6h22.4v17.6z"></path>
</symbol>
<symbol id="closeBtn" viewBox="0 0 32 32">
<path d="M25.333 8.546l-1.88-1.88-7.453 7.453-7.453-7.453-1.88 1.88 7.453 7.453-7.453 7.453 1.88 1.88 7.453-7.453 7.453 7.453 1.88-1.88-7.453-7.453 7.453-7.453z"></path>
</symbol>
<symbol id="returnBtn" viewBox="0 0 53 32">
<path stroke-linejoin="miter" stroke-linecap="butt" stroke-miterlimit="4" stroke-width="7.1111" d="M49.778 5.333v10.667h-42.667M7.111 16l12.444-12.444M7.111 16l12.444 12.444"></path>
</symbol>
<symbol id="slimMomTxt" viewBox="0 0 205 32">
<path fill="#212121" style="fill: var(--color2, #212121)" d="M0.962 26.004l1.4-1.618c1.651 1.51 3.281 2.608 4.891 3.296 1.61 0.674 3.463 1.011 5.56 1.011 2.165 0 3.93-0.546 5.296-1.638s2.050-2.494 2.050-4.206c0-1.078-0.223-1.975-0.67-2.689-0.433-0.715-1.258-1.362-2.476-1.941-1.204-0.58-2.895-1.092-5.073-1.537-3.504-0.714-6.020-1.705-7.549-2.972-1.515-1.281-2.273-3.033-2.273-5.257 0-2.17 0.886-3.983 2.658-5.439s4.004-2.184 6.697-2.184c2.056 0 3.849 0.283 5.378 0.849 1.529 0.553 3.057 1.442 4.586 2.669l-1.36 1.699c-1.339-1.159-2.712-1.995-4.119-2.507-1.393-0.512-2.915-0.768-4.566-0.768-2.11 0-3.822 0.532-5.134 1.597-1.312 1.051-1.968 2.373-1.968 3.963 0 1.092 0.216 2.002 0.649 2.73 0.446 0.714 1.292 1.382 2.537 2.002 1.258 0.607 3.017 1.139 5.276 1.597 3.369 0.688 5.804 1.665 7.305 2.932 1.515 1.267 2.273 2.979 2.273 5.136 0 2.319-0.906 4.219-2.719 5.702-1.813 1.469-4.126 2.204-6.94 2.204-2.286 0-4.37-0.377-6.25-1.132-1.867-0.755-3.687-1.921-5.459-3.498z"></path>
<path fill="#212121" style="fill: var(--color2, #212121)" d="M32.575 30.23v-30.23h2.029v30.23h-2.029z"></path>
<path fill="#212121" style="fill: var(--color2, #212121)" d="M46.006 3.599v-2.77h2.516v2.77h-2.516zM46.249 30.23v-21.11h2.029v21.11h-2.029z"></path>
<path fill="#212121" style="fill: var(--color2, #212121)" d="M59.619 30.23v-21.11h2.050v3.761c0.392-0.62 0.785-1.159 1.177-1.618s0.866-0.896 1.421-1.314c0.568-0.431 1.224-0.762 1.968-0.991 0.758-0.229 1.59-0.344 2.496-0.344 1.732 0 3.193 0.425 4.383 1.274 1.204 0.836 2.124 1.928 2.76 3.276 1.772-3.033 4.322-4.55 7.65-4.55 2.503 0 4.485 0.802 5.946 2.406s2.192 3.741 2.192 6.41v12.8h-2.029v-12.557c0-2.265-0.555-4.031-1.664-5.298s-2.645-1.901-4.606-1.901c-1.867 0-3.45 0.674-4.748 2.022s-1.948 3.161-1.948 5.439v12.294h-2.029v-12.678c0-2.184-0.561-3.909-1.684-5.176-1.109-1.267-2.611-1.901-4.505-1.901s-3.497 0.735-4.809 2.204c-1.312 1.456-1.968 3.249-1.968 5.379v12.173h-2.050z"></path>
<path fill="#fc842d" style="fill: var(--color3, #fc842d)" d="M103.529 30.118v-28.996h2.029l11.689 17.147 11.668-17.147h2.049v28.996h-2.171v-25.175l-11.506 16.682h-0.162l-11.526-16.682v25.175h-2.070z"></path>
<path fill="#fc842d" style="fill: var(--color3, #fc842d)" d="M141.027 19.434c0-1.469 0.277-2.878 0.832-4.226s1.306-2.521 2.252-3.518c0.947-1.011 2.104-1.813 3.47-2.406 1.366-0.607 2.821-0.91 4.363-0.91 2.043 0 3.896 0.506 5.56 1.517 1.678 0.998 2.976 2.346 3.896 4.044 0.933 1.685 1.4 3.518 1.4 5.5 0 1.968-0.467 3.795-1.4 5.48s-2.246 3.040-3.937 4.064c-1.678 1.011-3.544 1.517-5.601 1.517-1.529 0-2.969-0.297-4.322-0.89s-2.503-1.388-3.45-2.386c-0.947-0.998-1.698-2.17-2.253-3.518-0.541-1.361-0.812-2.784-0.812-4.267zM143.219 19.434c0 2.548 0.839 4.711 2.516 6.491 1.691 1.766 3.761 2.649 6.209 2.649 1.542 0 2.976-0.405 4.302-1.213 1.326-0.822 2.381-1.934 3.166-3.336s1.177-2.932 1.177-4.59c0-2.534-0.852-4.691-2.557-6.471-1.705-1.793-3.761-2.689-6.169-2.689-1.569 0-3.017 0.411-4.343 1.233-1.326 0.809-2.374 1.921-3.145 3.336-0.771 1.402-1.157 2.932-1.157 4.59z"></path>
<path fill="#fc842d" style="fill: var(--color3, #fc842d)" d="M172.376 30.118v-21.11h2.050v3.761c0.392-0.62 0.785-1.159 1.177-1.618s0.866-0.896 1.421-1.314c0.568-0.431 1.224-0.762 1.968-0.991 0.757-0.229 1.589-0.344 2.496-0.344 1.732 0 3.193 0.425 4.383 1.274 1.204 0.836 2.124 1.928 2.76 3.276 1.771-3.033 4.322-4.55 7.65-4.55 2.504 0 4.486 0.802 5.946 2.406s2.191 3.741 2.191 6.41v12.8h-2.029v-12.557c0-2.265-0.555-4.031-1.664-5.298s-2.645-1.901-4.606-1.901c-1.867 0-3.45 0.674-4.749 2.022s-1.948 3.161-1.948 5.439v12.294h-2.029v-12.678c0-2.184-0.561-3.909-1.684-5.176-1.109-1.267-2.611-1.901-4.505-1.901s-3.497 0.735-4.809 2.204c-1.312 1.456-1.968 3.249-1.968 5.379v12.173h-2.050z"></path>
</symbol>
</defs>
</svg>
